# xmcd CD database file
#
# Track frame offsets:
#	150
#	7677
#	21312
#	39185
#	47522
#	67035
#	79802
#	93517
#	104755
#	118342
#	131792
#	145185
#	158880
#	171450
#	180272
#	191565
#	202142
#	213262
#	222472
#	233545
#	244015
#	253035
#	269942
#	286167
#	307685
#
# Disc length: 4283 seconds
#
# Revision: 6
# Processed by: cddbd v1.5.2PL0 Copyright (c) Steve Scherf et al.
# Submitted via: CDex 1.78
#
DISCID=6e10b919
DTITLE=Various Artist - Columbia Country Classics Vol. III - Americana
DYEAR=1990
DGENRE=Country
TTITLE0=Fess Parker - Ballad Of Davy Crockett
TTITLE1=Johnny Cash - Don't Take Your Guns To Town
TTITLE2=Marty Robbins - Big Iron
TTITLE3=Johnny Western - The Ballad Of Paladin
TTITLE4=Marty Robbins - El Paso
TTITLE5=Billy Walker - Cross The Brazos At Waco
TTITLE6=Lefty Frizzell - Long Black Veil
TTITLE7=Stonewall Jackson - Life To Go
TTITLE8=Jimmy Dean - Big Bad John
TTITLE9=Johnny Cash - Tennessee Flat Top Box
TTITLE10=Claude King - Wolverton Mountain
TTITLE11=Lefty Frizzell - Saginaw Michigan
TTITLE12=Johnny Horton - North To Alaska
TTITLE13=Hawkshaw Hawkins - Twenty Miles From Shore
TTITLE14=Johnny Horton - The Battle Of New Orleans
TTITLE15=Hawkshaw Hawkins - Soldier's Joy
TTITLE16=Stonewall Jackson - Waterloo - Stonewall Jackson
TTITLE17=Lester Flatt, Earl Scuggs and The Foggy Mountain Boys - The Ballad Of Jed Clampett
TTITLE18=Little Jimmie Dickens - May The Bird Of Paradise Fly Up Your Nose
TTITLE19=The Statler Brothers - Flowers On The Wall
TTITLE20=Tommy Collins - If You Can't Bite, Don't Growl
TTITLE21=Johnny Cash - A Boy Named Sue
TTITLE22=The Charlie Daniels Band - The Devil Went Down To Georgia
TTITLE23=Merle Haggard and Willie Nelson - Pancho And Lefty
TTITLE24=Waylon Jennings, Willie Nelson, Johnny Cash and Kris Kristofferson - Highwayman
EXTD=(c)1990 Sony Music Entertainment Inc\nCOL 468121-2\nupc 5099746812126 YEAR: 1990
EXTT0=
EXTT1=
EXTT2=
EXTT3=
EXTT4=
EXTT5=
EXTT6=
EXTT7=
EXTT8=
EXTT9=
EXTT10=
EXTT11=
EXTT12=
EXTT13=
EXTT14=
EXTT15=
EXTT16=
EXTT17=
EXTT18=
EXTT19=
EXTT20=
EXTT21=
EXTT22=
EXTT23=
EXTT24=
PLAYORDER=
